<svg width="78" height="94" viewBox="0 0 78 94" fill="none" xmlns="http://www.w3.org/2000/svg">
<path d="M5.6665 78.25V15.75C5.6665 12.9874 6.76397 10.3378 8.71747 8.38435C10.671 6.43084 13.3205 5.33337 16.0832 5.33337H72.3332V88.6667H16.0832C13.3205 88.6667 10.671 87.5692 8.71747 85.6157C6.76397 83.6622 5.6665 81.0127 5.6665 78.25ZM5.6665 78.25C5.6665 75.4874 6.76397 72.8379 8.71747 70.8844C10.671 68.9308 13.3205 67.8334 16.0832 67.8334H72.3332" stroke="#CA8A04" stroke-width="10" stroke-linecap="round" stroke-linejoin="round"/>
<path d="M55.6663 31.1667C55.6663 26.1667 51.4997 22 46.4997 22C43.1663 22 40.6663 23.25 38.9997 25.75C37.333 23.25 34.833 22 31.4997 22C26.4997 22 22.333 26.1667 22.333 31.1667C22.333 33.6667 23.583 36.1667 25.2497 37.8333C30.6663 43.25 38.9997 51.1667 38.9997 51.1667C38.9997 51.1667 47.333 43.25 52.7497 38.25C54.4163 36.5833 55.6663 34.0833 55.6663 31.1667Z" stroke="#CA8A04" stroke-width="10" stroke-linecap="round" stroke-linejoin="round"/>
</svg>
